<svg xmlns="http://www.w3.org/2000/svg" xmlns:xlink="http://www.w3.org/1999/xlink" width="1080" zoomAndPan="magnify" viewBox="0 0 810 809.999993" height="1080" preserveAspectRatio="xMidYMid meet" version="1.0"><defs><g/></defs><g fill="#000000" fill-opacity="1"><g transform="translate(318.185143, 486.911228)"><g><path d="M 17.046875 -12.59375 C 18.472656 -12.289062 19.613281 -11.582031 20.46875 -10.46875 C 21.332031 -9.363281 21.765625 -8.101562 21.765625 -6.6875 C 21.765625 -4.632812 21.046875 -3.003906 19.609375 -1.796875 C 18.179688 -0.597656 16.179688 0 13.609375 0 L 2.171875 0 L 2.171875 -24.5625 L 13.234375 -24.5625 C 15.722656 -24.5625 17.671875 -23.988281 19.078125 -22.84375 C 20.492188 -21.707031 21.203125 -20.160156 21.203125 -18.203125 C 21.203125 -16.753906 20.820312 -15.550781 20.0625 -14.59375 C 19.3125 -13.632812 18.304688 -12.96875 17.046875 -12.59375 Z M 8.15625 -14.625 L 12.078125 -14.625 C 13.054688 -14.625 13.804688 -14.835938 14.328125 -15.265625 C 14.859375 -15.703125 15.125 -16.34375 15.125 -17.1875 C 15.125 -18.019531 14.859375 -18.660156 14.328125 -19.109375 C 13.804688 -19.554688 13.054688 -19.78125 12.078125 -19.78125 L 8.15625 -19.78125 Z M 12.5625 -4.828125 C 13.5625 -4.828125 14.335938 -5.050781 14.890625 -5.5 C 15.441406 -5.957031 15.71875 -6.617188 15.71875 -7.484375 C 15.71875 -8.347656 15.429688 -9.023438 14.859375 -9.515625 C 14.285156 -10.003906 13.5 -10.25 12.5 -10.25 L 8.15625 -10.25 L 8.15625 -4.828125 Z M 12.5625 -4.828125 "/></g></g></g><g fill="#000000" fill-opacity="1"><g transform="translate(341.24493, 486.911228)"><g><path d="M 14.703125 0 L 9.59375 -9.28125 L 8.15625 -9.28125 L 8.15625 0 L 2.171875 0 L 2.171875 -24.5625 L 12.21875 -24.5625 C 14.15625 -24.5625 15.804688 -24.222656 17.171875 -23.546875 C 18.535156 -22.878906 19.554688 -21.953125 20.234375 -20.765625 C 20.910156 -19.585938 21.25 -18.273438 21.25 -16.828125 C 21.25 -15.203125 20.785156 -13.742188 19.859375 -12.453125 C 18.941406 -11.171875 17.582031 -10.265625 15.78125 -9.734375 L 21.453125 0 Z M 8.15625 -13.515625 L 11.859375 -13.515625 C 12.960938 -13.515625 13.785156 -13.78125 14.328125 -14.3125 C 14.878906 -14.851562 15.15625 -15.613281 15.15625 -16.59375 C 15.15625 -17.519531 14.878906 -18.25 14.328125 -18.78125 C 13.785156 -19.320312 12.960938 -19.59375 11.859375 -19.59375 L 8.15625 -19.59375 Z M 8.15625 -13.515625 "/></g></g></g><g fill="#000000" fill-opacity="1"><g transform="translate(364.059778, 486.911228)"><g><path d="M 8.15625 -24.5625 L 8.15625 0 L 2.171875 0 L 2.171875 -24.5625 Z M 8.15625 -24.5625 "/></g></g></g><g fill="#000000" fill-opacity="1"><g transform="translate(374.382452, 486.911228)"><g><path d="M 13.796875 0.25 C 11.484375 0.25 9.363281 -0.285156 7.4375 -1.359375 C 5.507812 -2.429688 3.976562 -3.929688 2.84375 -5.859375 C 1.71875 -7.785156 1.15625 -9.953125 1.15625 -12.359375 C 1.15625 -14.753906 1.71875 -16.910156 2.84375 -18.828125 C 3.976562 -20.742188 5.507812 -22.238281 7.4375 -23.3125 C 9.363281 -24.382812 11.484375 -24.921875 13.796875 -24.921875 C 16.097656 -24.921875 18.210938 -24.382812 20.140625 -23.3125 C 22.066406 -22.238281 23.582031 -20.742188 24.6875 -18.828125 C 25.800781 -16.910156 26.359375 -14.753906 26.359375 -12.359375 C 26.359375 -9.953125 25.796875 -7.785156 24.671875 -5.859375 C 23.554688 -3.929688 22.039062 -2.429688 20.125 -1.359375 C 18.207031 -0.285156 16.097656 0.25 13.796875 0.25 Z M 13.796875 -5.21875 C 15.753906 -5.21875 17.320312 -5.867188 18.5 -7.171875 C 19.675781 -8.484375 20.265625 -10.210938 20.265625 -12.359375 C 20.265625 -14.523438 19.675781 -16.253906 18.5 -17.546875 C 17.320312 -18.847656 15.753906 -19.5 13.796875 -19.5 C 11.804688 -19.5 10.222656 -18.851562 9.046875 -17.5625 C 7.867188 -16.28125 7.28125 -14.546875 7.28125 -12.359375 C 7.28125 -10.179688 7.867188 -8.445312 9.046875 -7.15625 C 10.222656 -5.863281 11.804688 -5.21875 13.796875 -5.21875 Z M 13.796875 -5.21875 "/></g></g></g><g fill="#000000" fill-opacity="1"><g transform="translate(401.886242, 486.911228)"><g/></g></g><g fill="#f4a261" fill-opacity="1"><g transform="translate(409.310138, 486.911228)"><g><path d="M 18.484375 -16.796875 C 18.035156 -17.617188 17.394531 -18.242188 16.5625 -18.671875 C 15.738281 -19.097656 14.769531 -19.3125 13.65625 -19.3125 C 11.71875 -19.3125 10.164062 -18.675781 9 -17.40625 C 7.832031 -16.132812 7.25 -14.4375 7.25 -12.3125 C 7.25 -10.050781 7.859375 -8.285156 9.078125 -7.015625 C 10.304688 -5.742188 11.992188 -5.109375 14.140625 -5.109375 C 15.609375 -5.109375 16.847656 -5.476562 17.859375 -6.21875 C 18.878906 -6.96875 19.625 -8.046875 20.09375 -9.453125 L 12.5 -9.453125 L 12.5 -13.859375 L 25.515625 -13.859375 L 25.515625 -8.296875 C 25.066406 -6.804688 24.3125 -5.414062 23.25 -4.125 C 22.195312 -2.84375 20.851562 -1.804688 19.21875 -1.015625 C 17.582031 -0.222656 15.738281 0.171875 13.6875 0.171875 C 11.257812 0.171875 9.09375 -0.359375 7.1875 -1.421875 C 5.289062 -2.484375 3.8125 -3.957031 2.75 -5.84375 C 1.6875 -7.738281 1.15625 -9.894531 1.15625 -12.3125 C 1.15625 -14.738281 1.6875 -16.90625 2.75 -18.8125 C 3.8125 -20.71875 5.285156 -22.195312 7.171875 -23.25 C 9.066406 -24.3125 11.226562 -24.84375 13.65625 -24.84375 C 16.59375 -24.84375 19.066406 -24.128906 21.078125 -22.703125 C 23.097656 -21.285156 24.4375 -19.316406 25.09375 -16.796875 Z M 18.484375 -16.796875 "/></g></g></g><g fill="#f4a261" fill-opacity="1"><g transform="translate(435.974115, 486.911228)"><g><path d="M 23.234375 -24.5625 L 14.734375 -8.125 L 14.734375 0 L 8.75 0 L 8.75 -8.125 L 0.25 -24.5625 L 7.03125 -24.5625 L 11.796875 -14.28125 L 16.515625 -24.5625 Z M 23.234375 -24.5625 "/></g></g></g><g fill="#f4a261" fill-opacity="1"><g transform="translate(459.453808, 486.911228)"><g><path d="M 30 -24.5625 L 30 0 L 24.015625 0 L 24.015625 -14.734375 L 18.515625 0 L 13.6875 0 L 8.15625 -14.765625 L 8.15625 0 L 2.171875 0 L 2.171875 -24.5625 L 9.234375 -24.5625 L 16.140625 -7.5625 L 22.953125 -24.5625 Z M 30 -24.5625 "/></g></g></g></svg>